<?xml version="1.0" standalone="no"?>
<!DOCTYPE svg PUBLIC "-//W3C//DTD SVG 20010904//EN"
 "http://www.w3.org/TR/2001/REC-SVG-20010904/DTD/svg10.dtd">
<svg version="1.0" xmlns="http://www.w3.org/2000/svg"
 width="568.000000pt" height="568.000000pt" viewBox="0 0 568.000000 568.000000"
 preserveAspectRatio="xMidYMid meet">
<metadata>
Created by potrace 1.14, written by Peter Selinger 2001-2017
</metadata>
<g transform="translate(0.000000,568.000000) scale(0.100000,-0.100000)"
fill="#000000" stroke="none">
<path d="M10 2845 l0 -2835 2835 0 2835 0 0 2835 0 2835 -2835 0 -2835 0 0
-2835z m4619 1346 c7 -5 10 -14 7 -20 -4 -6 -1 -11 8 -11 9 0 13 7 11 20 -2
13 2 20 11 20 26 0 14 -41 -16 -53 -16 -7 28 -3 73 7 16 4 38 1 54 -7 25 -13
25 -14 5 -19 -13 -4 -20 -1 -19 5 1 6 -7 12 -18 14 -17 3 -17 2 -5 -7 12 -8
10 -9 -10 -5 -14 3 -38 1 -55 -5 -28 -9 -28 -10 8 -4 26 3 37 2 32 -5 -3 -6
-23 -12 -43 -12 -21 -1 -29 -3 -18 -6 17 -4 14 -8 -13 -19 -18 -8 -38 -11 -44
-7 -6 3 -7 1 -3 -5 9 -15 -6 -16 -21 -1 -8 8 -13 7 -18 -2 -5 -8 -4 -10 3 -5
7 4 12 3 12 -2 0 -13 -70 -43 -82 -36 -7 4 -8 2 -4 -4 8 -13 -50 -46 -65 -37
-5 4 -8 2 -7 -3 3 -10 -130 -104 -149 -105 -7 0 -10 -4 -8 -8 3 -3 -28 -31
-68 -62 -39 -30 -112 -93 -161 -139 l-90 -85 21 -26 20 -26 44 45 c106 108
298 143 436 80 95 -45 163 -123 211 -243 26 -67 26 -73 30 -340 l4 -273 -30
-30 c-41 -41 -89 -41 -134 -1 l-33 29 -5 284 c-5 310 -10 336 -69 377 -115 80
-263 39 -334 -94 -21 -37 -22 -58 -27 -303 l-5 -264 -28 -24 c-40 -34 -105
-33 -138 2 -24 25 -24 26 -29 302 -5 271 -6 278 -29 320 -14 23 -28 42 -31 42
-11 0 -140 -138 -253 -272 -59 -70 -112 -130 -117 -133 -6 -4 -10 -53 -10
-111 0 -119 -12 -154 -59 -174 -36 -15 -77 -6 -107 21 l-21 20 -99 -113 c-54
-62 -117 -133 -140 -158 -22 -25 -87 -97 -144 -160 -152 -168 -430 -443 -543
-537 -471 -390 -839 -454 -1177 -203 -424 314 -621 1017 -507 1809 12 80 12
75 13 -145 1 -187 5 -250 22 -344 69 -377 199 -596 417 -699 261 -124 549 -42
970 276 l130 98 5 492 c5 484 5 493 26 513 32 32 93 37 127 10 15 -12 27 -27
27 -35 0 -9 24 -1 73 25 190 98 403 68 554 -77 33 -32 73 -84 89 -115 l29 -57
63 47 62 46 0 64 c0 57 3 67 29 93 39 38 97 41 130 5 l22 -24 167 112 c261
176 425 269 624 357 159 70 336 123 359 108 8 -5 21 -8 29 -8 10 0 11 2 2 6
-6 2 -10 9 -6 14 7 11 15 11 33 0z m252 -14 c-10 -9 -11 -8 -5 6 3 10 9 15 12
12 3 -3 0 -11 -7 -18z m-3104 -528 c74 -28 125 -63 189 -131 179 -189 169
-464 -22 -648 -155 -149 -387 -179 -571 -73 l-43 24 0 -195 c0 -130 -4 -204
-12 -221 -13 -29 -55 -55 -88 -55 -29 0 -76 26 -84 45 -3 9 -6 282 -6 607 l0
590 29 29 c21 21 39 29 64 29 38 0 87 -32 87 -57 0 -13 4 -13 28 3 125 83 292
103 429 53z m-1120 -121 c-3 -7 -5 -2 -5 12 0 14 2 19 5 13 2 -7 2 -19 0 -25z"/>
<path d="M4520 4071 c0 -6 4 -12 8 -15 5 -3 9 1 9 9 0 8 -4 15 -9 15 -4 0 -8
-4 -8 -9z"/>
<path d="M4487 4059 c7 -7 15 -10 18 -7 3 3 -2 9 -12 12 -14 6 -15 5 -6 -5z"/>
<path d="M2607 3480 c-119 -30 -203 -122 -223 -247 -8 -50 17 -139 53 -194 24
-37 104 -99 128 -99 6 0 79 55 161 123 83 67 168 136 189 152 l38 31 -17 50
c-43 131 -197 217 -329 184z"/>
<path d="M2380 2799 c0 -18 2 -19 15 -9 15 12 12 30 -6 30 -5 0 -9 -10 -9 -21z"/>
<path d="M1536 3474 c-68 -21 -121 -59 -155 -111 -120 -180 -6 -421 209 -440
122 -11 228 49 281 161 45 95 38 186 -20 278 -35 54 -85 90 -161 112 -65 19
-90 19 -154 0z"/>
</g>
</svg>
